<?xml version="1.0" encoding="UTF-8"?> <svg xmlns="http://www.w3.org/2000/svg" width="702" height="105" viewBox="0 0 702 105" fill="none"> <path d="M21.8588 54.319C21.8588 57.8413 22.2731 61.0182 23.1019 63.8499C23.9997 66.6815 25.2429 69.1333 26.8314 71.2052C28.4889 73.208 30.4918 74.762 32.8399 75.867C35.1881 76.972 37.8816 77.5245 40.9204 77.5245C43.8902 77.5245 46.5491 76.972 48.8973 75.867C51.3146 74.762 53.3174 73.208 54.9059 71.2052C56.5634 69.1333 57.8066 66.6815 58.6353 63.8499C59.5332 61.0182 59.9821 57.8413 59.9821 54.319C59.9821 50.7968 59.5332 47.6198 58.6353 44.7882C57.8066 41.8875 56.5634 39.4357 54.9059 37.4329C53.3174 35.361 51.3146 33.7725 48.8973 32.6675C46.5491 31.5624 43.8902 31.0099 40.9204 31.0099C37.8816 31.0099 35.1881 31.597 32.8399 32.7711C30.4918 33.8761 28.4889 35.4646 26.8314 37.5365C25.2429 39.5393 23.9997 41.9911 23.1019 44.8918C22.2731 47.7234 21.8588 50.8658 21.8588 54.319ZM76.6611 54.319C76.6611 60.4657 75.7287 65.8872 73.864 70.5836C72.0683 75.2109 69.582 79.113 66.405 82.29C63.2281 85.3978 59.4296 87.746 55.0095 89.3345C50.6585 90.923 45.9621 91.7172 40.9204 91.7172C36.0169 91.7172 31.3896 90.923 27.0386 89.3345C22.6875 87.746 18.889 85.3978 15.643 82.29C12.397 79.113 9.84162 75.2109 7.97689 70.5836C6.11217 65.8872 5.1798 60.4657 5.1798 54.319C5.1798 48.1723 6.1467 42.7853 8.08049 38.158C10.0143 33.4617 12.6042 29.525 15.8502 26.3481C19.1653 23.1712 22.9638 20.7884 27.2458 19.2C31.5968 17.6115 36.155 16.8173 40.9204 16.8173C45.824 16.8173 50.4513 17.6115 54.8023 19.2C59.1533 20.7884 62.9518 23.1712 66.1979 26.3481C69.4439 29.525 71.9992 33.4617 73.864 38.158C75.7287 42.7853 76.6611 48.1723 76.6611 54.319ZM138.305 90.2668C133.677 82.0482 128.67 73.9332 123.283 65.9218C117.896 57.9104 112.164 50.3478 106.086 43.2343V90.2668H90.1326V18.4748H103.289C105.568 20.7539 108.089 23.551 110.852 26.8661C113.614 30.1812 116.411 33.738 119.243 37.5365C122.144 41.2659 125.01 45.168 127.842 49.2428C130.673 53.2485 133.332 57.1161 135.818 60.8456V18.4748H151.876V90.2668H138.305ZM168.437 90.2668V18.4748H216.92V32.0459H184.598V46.1349H213.294V59.3952H184.598V76.6958H219.302V90.2668H168.437ZM299.452 18.4748H315.613V90.2668H299.452V59.8096H272.31V90.2668H256.149V18.4748H272.31V45.9277H299.452V18.4748ZM345.799 54.319C345.799 57.8413 346.213 61.0182 347.042 63.8499C347.94 66.6815 349.183 69.1333 350.771 71.2052C352.429 73.208 354.432 74.762 356.78 75.867C359.128 76.972 361.821 77.5245 364.86 77.5245C367.83 77.5245 370.489 76.972 372.837 75.867C375.254 74.762 377.257 73.208 378.846 71.2052C380.503 69.1333 381.746 66.6815 382.575 63.8499C383.473 61.0182 383.922 57.8413 383.922 54.319C383.922 50.7968 383.473 47.6198 382.575 44.7882C381.746 41.8875 380.503 39.4357 378.846 37.4329C377.257 35.361 375.254 33.7725 372.837 32.6675C370.489 31.5624 367.83 31.0099 364.86 31.0099C361.821 31.0099 359.128 31.597 356.78 32.7711C354.432 33.8761 352.429 35.4646 350.771 37.5365C349.183 39.5393 347.94 41.9911 347.042 44.8918C346.213 47.7234 345.799 50.8658 345.799 54.319ZM400.601 54.319C400.601 60.4657 399.669 65.8872 397.804 70.5836C396.008 75.2109 393.522 79.113 390.345 82.29C387.168 85.3978 383.369 87.746 378.949 89.3345C374.598 90.923 369.902 91.7172 364.86 91.7172C359.957 91.7172 355.329 90.923 350.978 89.3345C346.627 87.746 342.829 85.3978 339.583 82.29C336.337 79.113 333.782 75.2109 331.917 70.5836C330.052 65.8872 329.12 60.4657 329.12 54.319C329.12 48.1723 330.087 42.7853 332.02 38.158C333.954 33.4617 336.544 29.525 339.79 26.3481C343.105 23.1712 346.904 20.7884 351.186 19.2C355.537 17.6115 360.095 16.8173 364.86 16.8173C369.764 16.8173 374.391 17.6115 378.742 19.2C383.093 20.7884 386.892 23.1712 390.138 26.3481C393.384 29.525 395.939 33.4617 397.804 38.158C399.669 42.7853 400.601 48.1723 400.601 54.319ZM464.893 18.4748V32.2531H443.241V90.2668H427.08V32.2531H405.429V18.4748H464.893ZM521.714 17.646C532.419 17.646 540.638 19.5453 546.37 23.3438C552.103 27.0733 554.969 33.22 554.969 41.7839C554.969 50.4169 552.068 56.6672 546.267 60.5348C540.465 64.3333 532.178 66.2326 521.404 66.2326H516.327V90.2668H500.166V19.5108C503.689 18.8201 507.418 18.3367 511.355 18.0604C515.291 17.7842 518.745 17.646 521.714 17.646ZM522.75 31.4243C521.576 31.4243 520.402 31.4588 519.228 31.5279C518.123 31.597 517.156 31.666 516.327 31.7351V52.4543H521.404C526.998 52.4543 531.211 51.6946 534.042 50.1752C536.874 48.6558 538.29 45.8242 538.29 41.6803C538.29 39.6775 537.91 38.0199 537.15 36.7077C536.46 35.3955 535.424 34.3595 534.042 33.5998C532.73 32.7711 531.107 32.2185 529.173 31.9423C527.239 31.597 525.099 31.4243 522.75 31.4243ZM580.407 54.319C580.407 57.8413 580.822 61.0182 581.65 63.8499C582.548 66.6815 583.791 69.1333 585.38 71.2052C587.037 73.208 589.04 74.762 591.388 75.867C593.737 76.972 596.43 77.5245 599.469 77.5245C602.439 77.5245 605.098 76.972 607.446 75.867C609.863 74.762 611.866 73.208 613.454 71.2052C615.112 69.1333 616.355 66.6815 617.184 63.8499C618.082 61.0182 618.531 57.8413 618.531 54.319C618.531 50.7968 618.082 47.6198 617.184 44.7882C616.355 41.8875 615.112 39.4357 613.454 37.4329C611.866 35.361 609.863 33.7725 607.446 32.6675C605.098 31.5624 602.439 31.0099 599.469 31.0099C596.43 31.0099 593.737 31.597 591.388 32.7711C589.04 33.8761 587.037 35.4646 585.38 37.5365C583.791 39.5393 582.548 41.9911 581.65 44.8918C580.822 47.7234 580.407 50.8658 580.407 54.319ZM635.21 54.319C635.21 60.4657 634.277 65.8872 632.412 70.5836C630.617 75.2109 628.13 79.113 624.954 82.29C621.777 85.3978 617.978 87.746 613.558 89.3345C609.207 90.923 604.511 91.7172 599.469 91.7172C594.565 91.7172 589.938 90.923 585.587 89.3345C581.236 87.746 577.437 85.3978 574.191 82.29C570.945 79.113 568.39 75.2109 566.525 70.5836C564.661 65.8872 563.728 60.4657 563.728 54.319C563.728 48.1723 564.695 42.7853 566.629 38.158C568.563 33.4617 571.153 29.525 574.399 26.3481C577.714 23.1712 581.512 20.7884 585.794 19.2C590.145 17.6115 594.703 16.8173 599.469 16.8173C604.372 16.8173 609 17.6115 613.351 19.2C617.702 20.7884 621.5 23.1712 624.746 26.3481C627.992 29.525 630.548 33.4617 632.412 38.158C634.277 42.7853 635.21 48.1723 635.21 54.319ZM699.501 18.4748V32.2531H677.85V90.2668H661.689V32.2531H640.037V18.4748H699.501Z" fill="#FFAA39"></path> </svg> 